<svg xmlns="http://www.w3.org/2000/svg" x="0px" y="0px" viewBox="0 0 32 32">
    <path fill="#222222" d="M16,0C7.2,0,0,7.2,0,16s7.2,16,16,16s16-7.2,16-16S24.8,0,16,0z M7.9,9.8C8.2,9.5,8.5,9.3,9,9.3h14
        c0.4,0,0.8,0.1,1.1,0.4c0.3,0.3,0.5,0.7,0.5,1.1c0,0.5-0.2,1-0.5,1.4c-0.3,0.5-0.7,0.8-1.2,1.2c-2.4,1.7-3.9,2.7-4.4,3.1
        c-0.1,0-0.2,0.1-0.4,0.3c-0.2,0.1-0.4,0.3-0.5,0.4c-0.1,0.1-0.3,0.2-0.5,0.3c-0.2,0.1-0.4,0.2-0.5,0.3c-0.2,0.1-0.3,0.1-0.5,0.1h0
        c-0.1,0-0.3,0-0.5-0.1c-0.2-0.1-0.4-0.1-0.5-0.3c-0.2-0.1-0.4-0.2-0.5-0.3c-0.1-0.1-0.3-0.2-0.5-0.4c-0.2-0.1-0.3-0.2-0.4-0.3
        c-0.6-0.4-1.4-1-2.5-1.7C10,14,9.3,13.6,9.1,13.4c-0.4-0.3-0.8-0.6-1.1-1.1c-0.3-0.5-0.5-0.9-0.5-1.3C7.5,10.6,7.6,10.1,7.9,9.8z
        M24.5,21.2c0,0.4-0.1,0.8-0.4,1.1c-0.3,0.3-0.7,0.4-1.1,0.4H9c-0.4,0-0.8-0.1-1.1-0.4c-0.3-0.3-0.4-0.7-0.4-1.1v-7.5
        c0.3,0.3,0.6,0.6,1,0.8c2.3,1.6,3.9,2.6,4.7,3.3c0.4,0.3,0.7,0.5,0.9,0.6c0.2,0.1,0.5,0.3,0.9,0.5c0.4,0.2,0.7,0.2,1,0.2h0
        c0.3,0,0.7-0.1,1-0.2c0.4-0.2,0.7-0.3,0.9-0.5c0.2-0.1,0.5-0.4,0.9-0.6c1.1-0.8,2.6-1.9,4.7-3.3c0.4-0.2,0.7-0.5,0.9-0.8V21.2z"/>
</svg>
