
<svg  xmlns="http://www.w3.org/2000/svg"  x="0px" y="0px" viewBox="0 0 32 32">
	<path fill="#222222" d="M18.9,13.7c-1.4,0-2,0.8-2.3,1.3v-1.1H14c0,0.7,0,7.8,0,7.8h2.6v-4.3c0-0.2,0-0.5,0.1-0.6
		c0.2-0.5,0.6-0.9,1.3-0.9c0.9,0,1.3,0.7,1.3,1.8v4.2h2.6h0v-4.5C21.9,14.8,20.6,13.7,18.9,13.7z M16.6,15L16.6,15
		C16.6,15,16.6,15,16.6,15L16.6,15z"/>
	<path fill="#222222" d="M16,0C7.2,0,0,7.2,0,16c0,8.8,7.2,16,16,16c8.8,0,16-7.2,16-16C32,7.2,24.8,0,16,0z M24.5,23.2
		c0,0.7-0.6,1.2-1.3,1.2H8.7c-0.7,0-1.3-0.6-1.3-1.2V8.5c0-0.7,0.6-1.2,1.3-1.2h14.6c0.7,0,1.3,0.6,1.3,1.2
		C24.5,8.5,24.5,23.2,24.5,23.2z"/>
	<path fill="#222222" d="M11.3,10.2c-0.9,0-1.5,0.6-1.5,1.3c0,0.7,0.6,1.3,1.4,1.3h0c0.9,0,1.5-0.6,1.5-1.3
		C12.7,10.7,12.2,10.2,11.3,10.2z"/>
	<rect fill="#222222" x="10" y="13.9" width="2.6" height="7.8"/>
</svg>
